<svg width="168" height="46" viewBox="0 0 168 46" fill="none" xmlns="http://www.w3.org/2000/svg">
<g clip-path="url(#clip0_49_18)">
<path d="M58.2025 31.3155V18.8808H53.6128V16.0832H65.9379V18.8808H61.3675V31.3155H58.196H58.2025Z" fill="#002A68"/>
<path d="M66.3312 31.3155V16.0832H69.3222V23.0322L68.8838 23.0515C69.0708 22.3682 69.3544 21.8267 69.7283 21.4206C70.1022 21.0145 70.5276 20.7373 71.0046 20.5697C71.4881 20.4021 71.9651 20.3183 72.4486 20.3183C73.6862 20.3183 74.6532 20.6664 75.3429 21.3562C76.0326 22.0459 76.3807 22.9999 76.3807 24.2118V31.3155H73.3639V25.327C73.3639 24.4954 73.2157 23.8895 72.9127 23.5027C72.6162 23.116 72.1456 22.9226 71.501 22.9226C70.7726 22.9226 70.2246 23.1869 69.8637 23.7219C69.4962 24.2569 69.3157 25.0885 69.3157 26.223V31.3155H66.3247H66.3312Z" fill="#002A68"/>
<path d="M77.6313 18.9711V16.0896H80.7577V18.9711H77.6313ZM77.6765 31.3155V20.544H80.6675V31.3155H77.6765Z" fill="#002A68"/>
<path d="M82.1113 31.3155V20.5439H85.1281V23.4705L84.7156 23.4898C84.7607 22.8774 84.9348 22.3295 85.2506 21.8525C85.5665 21.369 85.9597 20.9952 86.4432 20.7309C86.9266 20.4601 87.4165 20.3248 87.9258 20.3248C88.2868 20.3248 88.6413 20.3763 88.9765 20.4795C89.3117 20.5826 89.6662 20.7502 90.0466 20.9823L88.6026 23.6897C88.4415 23.5865 88.2352 23.4963 87.9773 23.4189C87.7195 23.3416 87.4616 23.2964 87.2038 23.2964C86.946 23.2964 86.6881 23.348 86.4367 23.4512C86.1918 23.5543 85.9726 23.7026 85.7792 23.9024C85.5858 24.1022 85.4376 24.3601 85.3215 24.6759C85.2506 24.8822 85.1926 25.14 85.1604 25.4495C85.1217 25.7653 85.1024 26.223 85.1024 26.8354V31.3155H82.1113Z" fill="#002A68"/>
<path d="M93.8883 31.5347C92.9536 31.5347 92.1543 31.2897 91.471 30.7998C90.7941 30.3099 90.2784 29.6459 89.9303 28.8015C89.5822 27.957 89.4082 26.9966 89.4082 25.92C89.4082 24.7275 89.608 23.7155 90.0077 22.8839C90.4074 22.0523 90.9488 21.4206 91.6386 20.9823C92.3219 20.5439 93.0761 20.3248 93.8883 20.3248C94.4427 20.3248 94.9648 20.4344 95.4483 20.66C95.9382 20.8856 96.3572 21.2466 96.7182 21.73C97.0727 22.2199 97.3112 22.8646 97.4272 23.6639L96.86 23.3609V16.0832H99.851V31.3155H96.86V28.5372L97.5175 28.0537C97.3434 28.9884 97.0598 29.7039 96.6666 30.2067C96.2734 30.7095 95.835 31.0576 95.358 31.2446C94.881 31.4315 94.3911 31.5282 93.8947 31.5282L93.8883 31.5347ZM94.7843 28.7821C95.2678 28.7821 95.6803 28.6661 96.0284 28.4341C96.3765 28.202 96.6473 27.8668 96.8342 27.4413C97.0211 27.0094 97.1178 26.5066 97.1178 25.92C97.1178 25.3334 97.0211 24.8371 96.8342 24.4116C96.6473 23.9862 96.3765 23.6574 96.0284 23.4189C95.6803 23.1804 95.2613 23.0579 94.7843 23.0579C94.3073 23.0579 93.8818 23.174 93.5273 23.406C93.1728 23.6381 92.8956 23.9669 92.6958 24.3923C92.5024 24.8178 92.3992 25.327 92.3992 25.92C92.3992 26.5131 92.4959 27.0288 92.6958 27.4607C92.8956 27.8926 93.1663 28.2213 93.5273 28.4469C93.8883 28.6726 94.3008 28.7821 94.7843 28.7821Z" fill="#002A68"/>
<path d="M105.975 31.3155V16.0832H116.16V18.8808H109.101V22.091H115.747V24.8887H109.101V28.5179H116.16V31.3155H105.975Z" fill="#002A68"/>
<path d="M117.339 31.3155V20.5439H120.33V23.0322L119.892 23.0515C120.079 22.3682 120.363 21.8267 120.737 21.4206C121.11 21.0145 121.536 20.7373 122.013 20.5697C122.496 20.4021 122.973 20.3183 123.457 20.3183C124.695 20.3183 125.661 20.6664 126.351 21.3562C127.041 22.0459 127.389 22.9999 127.389 24.2118V31.3155H124.372V25.327C124.372 24.4954 124.224 23.8895 123.921 23.5027C123.624 23.116 123.154 22.9226 122.509 22.9226C122.026 22.9226 121.626 23.0386 121.297 23.2707C120.969 23.5027 120.724 23.8573 120.563 24.3407C120.401 24.8242 120.324 25.4495 120.324 26.223V31.3155H117.333H117.339Z" fill="#002A68"/>
<path d="M133.597 31.5347C132.636 31.5347 131.811 31.38 131.115 31.077C130.425 30.774 129.864 30.355 129.432 29.8329C129.001 29.3107 128.691 28.7112 128.491 28.0537C128.292 27.3898 128.195 26.7 128.195 25.991C128.195 25.2819 128.292 24.6308 128.491 23.9604C128.685 23.29 128.988 22.6841 129.4 22.1362C129.806 21.5882 130.348 21.1499 131.018 20.8276C131.689 20.4988 132.488 20.3377 133.423 20.3377C134.254 20.3377 134.983 20.4795 135.621 20.7631C136.253 21.0467 136.781 21.44 137.207 21.9428C137.632 22.4456 137.948 23.0386 138.154 23.7219C138.367 24.4052 138.47 25.1401 138.47 25.9265C138.47 26.0554 138.47 26.2101 138.457 26.3842C138.444 26.5582 138.431 26.7581 138.406 26.9708H131.192C131.283 27.6412 131.566 28.1375 132.043 28.4663C132.527 28.795 133.1 28.9562 133.771 28.9562C134.312 28.9562 134.847 28.8595 135.389 28.6726C135.93 28.4856 136.401 28.2149 136.807 27.8603L138.186 29.9554C137.645 30.3357 137.149 30.6386 136.691 30.8707C136.233 31.1028 135.756 31.2704 135.273 31.3735C134.783 31.4766 134.228 31.5282 133.603 31.5282L133.597 31.5347ZM135.524 25.4624C135.55 25.3463 135.576 25.2303 135.601 25.1143C135.621 24.9982 135.634 24.8887 135.634 24.7855C135.634 24.4954 135.582 24.2312 135.473 23.9862C135.363 23.7477 135.215 23.535 135.028 23.3609C134.841 23.1869 134.615 23.0515 134.351 22.9548C134.087 22.8581 133.797 22.813 133.474 22.813C132.965 22.813 132.546 22.9097 132.217 23.1095C131.888 23.3094 131.644 23.5479 131.476 23.8444C131.308 24.1345 131.205 24.431 131.16 24.7404H136.536L135.531 25.4624H135.524Z" fill="#002A68"/>
<path d="M139.457 31.3155V20.5439H142.473V23.4705L142.061 23.4898C142.106 22.8774 142.28 22.3295 142.596 21.8525C142.912 21.369 143.305 20.9952 143.788 20.7309C144.272 20.4601 144.762 20.3248 145.271 20.3248C145.632 20.3248 145.987 20.3763 146.322 20.4795C146.657 20.5826 147.011 20.7502 147.392 20.9823L145.948 23.6897C145.787 23.5865 145.58 23.4963 145.323 23.4189C145.065 23.3416 144.807 23.2964 144.549 23.2964C144.291 23.2964 144.033 23.348 143.782 23.4512C143.537 23.5543 143.318 23.7026 143.124 23.9024C142.931 24.1022 142.783 24.3601 142.667 24.6759C142.596 24.8822 142.538 25.14 142.506 25.4495C142.467 25.7653 142.448 26.223 142.448 26.8354V31.3155H139.457Z" fill="#002A68"/>
<path d="M151.982 36.0147C150.351 36.0147 149.068 35.7247 148.133 35.151C147.198 34.5772 146.734 33.7908 146.734 32.8046C146.734 32.7014 146.741 32.5918 146.754 32.4694C146.767 32.3469 146.792 32.2244 146.818 32.1084L149.964 30.2519L150.641 31.1028L149.332 32.7208C149.332 32.7208 149.313 32.7788 149.313 32.811V32.9012C149.313 33.2364 149.551 33.5007 150.022 33.7006C150.492 33.9004 151.15 33.9971 151.975 33.9971C152.646 33.9971 153.148 33.9133 153.484 33.7457C153.819 33.5781 153.986 33.3589 153.986 33.0817C153.986 32.9206 153.941 32.7917 153.857 32.7014C153.767 32.6047 153.625 32.5274 153.419 32.4629C153.213 32.3984 152.936 32.334 152.581 32.276C152.227 32.218 151.782 32.1599 151.26 32.1019C150.602 32.031 149.951 31.8956 149.306 31.6958C148.655 31.496 148.12 31.2059 147.688 30.8127C147.257 30.4195 147.044 29.8973 147.044 29.2398C147.044 28.6403 147.244 28.0989 147.643 27.6089C148.043 27.119 148.578 26.7194 149.248 26.3971L150.583 27.5574C150.235 27.6025 149.957 27.7185 149.764 27.9055C149.564 28.0924 149.468 28.3116 149.468 28.563C149.468 28.7821 149.558 28.9562 149.738 29.0851C149.919 29.214 150.183 29.3172 150.525 29.3816C150.866 29.4461 151.272 29.5106 151.737 29.5686C152.51 29.6588 153.213 29.7555 153.857 29.878C154.502 30.0005 155.05 30.1616 155.52 30.3679C155.985 30.5806 156.346 30.8707 156.603 31.2446C156.855 31.6185 156.984 32.1019 156.984 32.695C156.984 33.7715 156.552 34.5966 155.682 35.1767C154.811 35.7569 153.58 36.0405 151.975 36.0405L151.982 36.0147ZM151.762 28.4341C150.847 28.4341 150.035 28.26 149.339 27.9119C148.642 27.5638 148.095 27.0868 147.708 26.4809C147.321 25.8749 147.128 25.1852 147.128 24.4181C147.128 23.5865 147.334 22.8646 147.753 22.2522C148.172 21.6398 148.72 21.1692 149.416 20.834C150.112 20.4988 150.853 20.3312 151.659 20.3312C152.465 20.3312 153.226 20.4988 153.909 20.834C154.592 21.1692 155.153 21.6527 155.579 22.278C156.01 22.9032 156.223 23.651 156.223 24.5083C156.223 25.2948 156.036 25.9845 155.669 26.5711C155.295 27.1577 154.779 27.6218 154.109 27.9506C153.438 28.2793 152.658 28.4405 151.769 28.4405L151.762 28.4341ZM151.691 26.049C152.233 26.049 152.62 25.8878 152.858 25.5591C153.097 25.2303 153.219 24.8435 153.219 24.3923C153.219 23.9411 153.084 23.5414 152.813 23.2449C152.542 22.9484 152.168 22.7937 151.685 22.7937C151.202 22.7937 150.828 22.9419 150.551 23.2449C150.273 23.5414 150.138 23.9282 150.138 24.3923C150.138 24.8564 150.26 25.2368 150.512 25.5591C150.757 25.8878 151.15 26.049 151.691 26.049ZM155.475 22.9032L153.309 21.5238L155.869 19.4674L157.422 21.3239L155.475 22.8968V22.9032Z" fill="#002A68"/>
<path d="M158.556 35.7762L160.787 30.4001L156.764 20.544H160.045L162.385 27.4027L164.77 20.544H168.006L161.799 35.7762H158.563H158.556Z" fill="#002A68"/>
<path d="M9.5919 0V9.5919H0V20.7824H20.7824V0H9.5919ZM1.61154 11.1905H9.5919V19.1709H1.61154V11.1905ZM11.197 19.1709V11.1905H19.1773V19.1709H11.197ZM19.1838 9.5919H11.2034V1.59865H19.1838V9.58545V9.5919ZM0 24.5277V35.7182H9.5919V45.3101H20.7824V24.5277H0ZM1.61154 34.1196V26.1328H9.5919V34.1196H1.61154ZM11.197 43.6986V35.7182H19.1773V43.6986H11.197ZM19.1838 34.1196H11.2034V26.1328H19.1838V34.1196ZM35.7053 9.5919V0H24.5148V20.7824H45.2972V9.5919H35.7053ZM34.1002 1.59865V9.58545H26.1134V1.59865H34.1002ZM26.1134 11.1905H34.1002V19.1709H26.1134V11.1905ZM43.6921 19.1709H35.7053V11.1905H43.6921V19.1709ZM24.5083 24.5277V45.3101H35.6989V35.7182H45.2908V24.5277H24.5083ZM43.6921 34.1196H35.7053V26.1328H43.6921V34.1196ZM26.1134 43.6986V35.7182H34.1002V43.6986H26.1134ZM34.1002 34.1196H26.1134V26.1328H34.1002V34.1196Z" fill="#002A68"/>
<path d="M19.1836 1.59866V9.58546H11.2032V1.59866H19.1836ZM11.1968 11.1906V19.1709H19.1771V11.1906H11.1968ZM1.61133 11.1906V19.1709H9.59168V11.1906H1.61133ZM1.61133 26.1263V34.1131H9.59168V26.1263H1.61133ZM11.1968 26.1263V34.1131H19.1771V26.1263H11.1968ZM11.1968 35.7182V43.6986H19.1771V35.7182H11.1968ZM35.7051 11.1906V19.1709H43.6919V11.1906H35.7051ZM26.1132 11.1906V19.1709H34.1V11.1906H26.1132ZM26.1132 1.59866V9.58546H34.1V1.59866H26.1132ZM26.1132 35.7182V43.6986H34.1V35.7182H26.1132ZM26.1132 26.1263V34.1131H34.1V26.1263H26.1132ZM35.7051 26.1263V34.1131H43.6919V26.1263H35.7051Z" fill="#FFB600"/>
</g>
<defs>
<clipPath id="clip0_49_18">
<rect width="168" height="45.3101" fill="white"/>
</clipPath>
</defs>
</svg>
