<svg preserveAspectRatio="none" width="100%" height="100%" overflow="visible" style="display: block;" viewBox="0 0 115 20" fill="none" xmlns="http://www.w3.org/2000/svg">
<g id="Group">
<path id="Vector" d="M4.58967 15.2323V2.79764H0V0H12.3251V2.79764H7.75474V15.2323H4.58323H4.58967Z" fill="var(--fill-0, #002A68)"/>
<path id="Vector_2" d="M12.7183 15.2323V1.0126e-06H15.7093V6.94897L15.271 6.96831C15.4579 6.28501 15.7416 5.74354 16.1154 5.33743C16.4893 4.93132 16.9148 4.65413 17.3918 4.48653C17.8752 4.31893 18.3523 4.23513 18.8357 4.23513C20.0734 4.23513 21.0403 4.58323 21.7301 5.27297C22.4198 5.96271 22.7679 6.91674 22.7679 8.12862V15.2323H19.7511V9.2438C19.7511 8.41225 19.6028 7.80631 19.2998 7.41954C19.0033 7.03277 18.5328 6.83938 17.8881 6.83938C17.1597 6.83938 16.6118 7.10368 16.2508 7.63871C15.8834 8.17374 15.7029 9.0053 15.7029 10.1398V15.2323H12.7119H12.7183Z" fill="var(--fill-0, #002A68)"/>
<path id="Vector_3" d="M24.0184 2.88789V0.00645302H27.1448V2.88789H24.0184ZM24.0635 15.2323V4.46076H27.0546V15.2323H24.0635Z" fill="var(--fill-0, #002A68)"/>
<path id="Vector_4" d="M28.4985 15.2323V4.46074H31.5153V7.3873L31.1028 7.40664C31.1479 6.79425 31.3219 6.24633 31.6378 5.76931C31.9537 5.28585 32.3469 4.91197 32.8303 4.64768C33.3138 4.37694 33.8037 4.24157 34.313 4.24157C34.6739 4.24157 35.0285 4.29314 35.3637 4.39628C35.6989 4.49942 36.0534 4.66702 36.4338 4.89908L34.9898 7.60647C34.8287 7.50333 34.6224 7.41309 34.3645 7.33573C34.1067 7.25838 33.8488 7.21325 33.591 7.21325C33.3331 7.21325 33.0753 7.26482 32.8239 7.36796C32.5789 7.4711 32.3598 7.61936 32.1664 7.81919C31.973 8.01902 31.8247 8.27687 31.7087 8.59273C31.6378 8.79901 31.5798 9.05686 31.5476 9.36627C31.5089 9.68213 31.4895 10.1398 31.4895 10.7522V15.2323H28.4985Z" fill="var(--fill-0, #002A68)"/>
<path id="Vector_5" d="M40.2756 15.4515C39.3409 15.4515 38.5416 15.2065 37.8583 14.7166C37.1815 14.2267 36.6658 13.5627 36.3177 12.7183C35.9696 11.8738 35.7955 10.9134 35.7955 9.83685C35.7955 8.64431 35.9954 7.63226 36.395 6.80071C36.7947 5.96915 37.3362 5.33743 38.0259 4.89909C38.7092 4.46075 39.4634 4.24158 40.2756 4.24158C40.83 4.24158 41.3521 4.35116 41.8356 4.57678C42.3255 4.80239 42.7445 5.16338 43.1055 5.64684C43.46 6.13675 43.6985 6.78137 43.8146 7.58069L43.2473 7.27772V1.0126e-06H46.2383V15.2323H43.2473V12.454L43.9048 11.9705C43.7308 12.9052 43.4471 13.6208 43.0539 14.1236C42.6607 14.6264 42.2224 14.9744 41.7454 15.1614C41.2683 15.3483 40.7784 15.445 40.2821 15.445L40.2756 15.4515ZM41.1716 12.699C41.6551 12.699 42.0677 12.5829 42.4158 12.3509C42.7639 12.1188 43.0346 11.7836 43.2215 11.3581C43.4085 10.9263 43.5052 10.4235 43.5052 9.83685C43.5052 9.25025 43.4085 8.75389 43.2215 8.32845C43.0346 7.903 42.7639 7.57425 42.4158 7.33574C42.0677 7.09723 41.6487 6.97475 41.1716 6.97475C40.6946 6.97475 40.2692 7.09079 39.9146 7.32285C39.5601 7.55491 39.2829 7.88366 39.0831 8.30911C38.8897 8.73456 38.7866 9.2438 38.7866 9.83685C38.7866 10.4299 38.8833 10.9456 39.0831 11.3775C39.2829 11.8094 39.5537 12.1381 39.9146 12.3637C40.2756 12.5894 40.6882 12.699 41.1716 12.699Z" fill="var(--fill-0, #002A68)"/>
<path id="Vector_6" d="M52.3622 15.2323V1.0126e-06H62.5471V2.79764H55.4886V6.00783H62.1346V8.80547H55.4886V12.4347H62.5471V15.2323H52.3622Z" fill="var(--fill-0, #002A68)"/>
<path id="Vector_7" d="M63.7268 15.2323V4.46075H66.7178V6.94897L66.2795 6.96831C66.4665 6.28502 66.7501 5.74354 67.124 5.33743C67.4978 4.93132 67.9233 4.65414 68.4003 4.48654C68.8838 4.31894 69.3608 4.23514 69.8442 4.23514C71.0819 4.23514 72.0488 4.58323 72.7386 5.27297C73.4283 5.96271 73.7764 6.91674 73.7764 8.12862V15.2323H70.7596V9.24381C70.7596 8.41225 70.6113 7.80631 70.3084 7.41954C70.0118 7.03277 69.5413 6.83939 68.8967 6.83939C68.4132 6.83939 68.0135 6.95542 67.6848 7.18748C67.356 7.41954 67.1111 7.77408 66.9499 8.25754C66.7888 8.74101 66.7114 9.36629 66.7114 10.1398V15.2323H63.7204H63.7268Z" fill="var(--fill-0, #002A68)"/>
<path id="Vector_8" d="M79.9841 15.4515C79.0236 15.4515 78.1985 15.2968 77.5023 14.9938C76.8125 14.6908 76.2517 14.2718 75.8198 13.7497C75.3879 13.2275 75.0785 12.628 74.8787 11.9705C74.6789 11.3066 74.5822 10.6168 74.5822 9.90776C74.5822 9.19869 74.6789 8.54762 74.8787 7.87722C75.0721 7.20682 75.375 6.60088 75.7876 6.05296C76.1937 5.50503 76.7352 5.06669 77.4056 4.74438C78.076 4.41563 78.8753 4.25447 79.81 4.25447C80.6416 4.25447 81.37 4.39629 82.0081 4.67992C82.6399 4.96355 83.1685 5.35677 83.5939 5.85957C84.0194 6.36237 84.3352 6.95542 84.5415 7.63871C84.7542 8.32201 84.8574 9.05687 84.8574 9.8433C84.8574 9.97223 84.8574 10.1269 84.8445 10.301C84.8316 10.475 84.8187 10.6749 84.7929 10.8876H77.5796C77.6699 11.558 77.9535 12.0543 78.4305 12.3831C78.914 12.7118 79.4877 12.873 80.1581 12.873C80.6996 12.873 81.2346 12.7763 81.7761 12.5894C82.3176 12.4024 82.7881 12.1317 83.1942 11.7772L84.5737 13.8722C84.0322 14.2525 83.5359 14.5554 83.0782 14.7875C82.6205 15.0196 82.1435 15.1872 81.6601 15.2903C81.1702 15.3935 80.6158 15.445 79.9905 15.445L79.9841 15.4515ZM81.9115 9.37918C81.9372 9.26315 81.963 9.14712 81.9888 9.03108C82.0081 8.91505 82.021 8.80547 82.021 8.70233C82.021 8.41225 81.9695 8.14796 81.8599 7.90301C81.7503 7.6645 81.602 7.45178 81.4151 7.27773C81.2282 7.10368 81.0025 6.96831 80.7383 6.87162C80.474 6.77493 80.1839 6.7298 79.8616 6.7298C79.3523 6.7298 78.9333 6.82649 78.6046 7.02633C78.2758 7.22616 78.0309 7.46467 77.8633 7.76119C77.6957 8.05127 77.5925 8.34779 77.5474 8.65721H82.9235L81.9179 9.37918H81.9115Z" fill="var(--fill-0, #002A68)"/>
<path id="Vector_9" d="M85.8436 15.2323V4.46074H88.8604V7.3873L88.4478 7.40664C88.493 6.79425 88.667 6.24633 88.9829 5.76931C89.2987 5.28585 89.692 4.91197 90.1754 4.64768C90.6589 4.37694 91.1488 4.24157 91.658 4.24157C92.019 4.24157 92.3736 4.29314 92.7088 4.39628C93.044 4.49942 93.3985 4.66702 93.7788 4.89908L92.3349 7.60647C92.1737 7.50333 91.9675 7.41309 91.7096 7.33573C91.4518 7.25838 91.1939 7.21325 90.9361 7.21325C90.6782 7.21325 90.4204 7.26482 90.169 7.36796C89.924 7.4711 89.7048 7.61936 89.5115 7.81919C89.3181 8.01902 89.1698 8.27687 89.0538 8.59273C88.9829 8.79901 88.9249 9.05686 88.8926 9.36627C88.854 9.68213 88.8346 10.1398 88.8346 10.7522V15.2323H85.8436Z" fill="var(--fill-0, #002A68)"/>
<path id="Vector_10" d="M98.3685 19.9315C96.7376 19.9315 95.4548 19.6415 94.5202 19.0678C93.5855 18.4941 93.1213 17.7076 93.1213 16.7214C93.1213 16.6182 93.1278 16.5086 93.1407 16.3862C93.1536 16.2637 93.1793 16.1412 93.2051 16.0252L96.3509 14.1687L97.0277 15.0196L95.7191 16.6376C95.7191 16.6376 95.6998 16.6956 95.6998 16.7278V16.8181C95.6998 17.1533 95.9383 17.4175 96.4089 17.6174C96.8794 17.8172 97.537 17.9139 98.3621 17.9139C99.0325 17.9139 99.5353 17.8301 99.8705 17.6625C100.206 17.4949 100.373 17.2757 100.373 16.9985C100.373 16.8374 100.328 16.7085 100.244 16.6182C100.154 16.5215 100.012 16.4442 99.806 16.3797C99.5997 16.3152 99.3225 16.2508 98.968 16.1928C98.6135 16.1348 98.1687 16.0767 97.6465 16.0187C96.989 15.9478 96.338 15.8124 95.6934 15.6126C95.0423 15.4128 94.5073 15.1227 94.0754 14.7295C93.6435 14.3363 93.4308 13.8141 93.4308 13.1566C93.4308 12.5571 93.6306 12.0157 94.0302 11.5257C94.4299 11.0358 94.9649 10.6362 95.6353 10.3139L96.9697 11.4742C96.6216 11.5193 96.3444 11.6353 96.151 11.8223C95.9512 12.0092 95.8545 12.2284 95.8545 12.4798C95.8545 12.699 95.9448 12.873 96.1252 13.0019C96.3057 13.1308 96.57 13.234 96.9117 13.2984C97.2533 13.3629 97.6594 13.4274 98.1236 13.4854C98.8971 13.5756 99.5997 13.6723 100.244 13.7948C100.889 13.9173 101.437 14.0784 101.907 14.2847C102.372 14.4974 102.733 14.7875 102.99 15.1614C103.242 15.5353 103.371 16.0187 103.371 16.6118C103.371 17.6883 102.939 18.5134 102.069 19.0935C101.198 19.6737 99.9672 19.9573 98.3621 19.9573L98.3685 19.9315ZM98.1493 12.3509C97.234 12.3509 96.4218 12.1768 95.7256 11.8287C95.0294 11.4806 94.4815 11.0036 94.0947 10.3977C93.7079 9.79173 93.5146 9.10199 93.5146 8.3349C93.5146 7.50334 93.7208 6.78137 94.1398 6.16898C94.5588 5.5566 95.1067 5.08603 95.8029 4.75083C96.4991 4.41562 97.2404 4.24802 98.0462 4.24802C98.852 4.24802 99.6126 4.41562 100.296 4.75083C100.979 5.08603 101.54 5.56949 101.965 6.19477C102.397 6.82005 102.61 7.5678 102.61 8.42514C102.61 9.21157 102.423 9.90131 102.056 10.4879C101.682 11.0745 101.166 11.5386 100.496 11.8674C99.8254 12.1961 99.0454 12.3573 98.1558 12.3573L98.1493 12.3509ZM98.0784 9.96577C98.6199 9.96577 99.0067 9.80462 99.2452 9.47587C99.4837 9.14711 99.6062 8.76034 99.6062 8.30911C99.6062 7.85788 99.4708 7.45822 99.2001 7.16169C98.9293 6.86517 98.5555 6.71046 98.072 6.71046C97.5885 6.71046 97.2147 6.85872 96.9375 7.16169C96.6603 7.45822 96.5249 7.84499 96.5249 8.30911C96.5249 8.77323 96.6474 9.15356 96.8988 9.47587C97.1437 9.80462 97.537 9.96577 98.0784 9.96577ZM101.862 6.82004L99.6964 5.44056L102.256 3.38424L103.809 5.24074L101.862 6.8136V6.82004Z" fill="var(--fill-0, #002A68)"/>
<path id="Vector_11" d="M104.944 19.6931L107.174 14.3169L103.152 4.46076H106.433L108.773 11.3195L111.158 4.46076H114.394L108.186 19.6931H104.95H104.944Z" fill="var(--fill-0, #002A68)"/>
</g>
</svg>
