<svg preserveAspectRatio="none" width="100%" height="100%" overflow="visible" style="display: block;" viewBox="0 0 46 46" fill="none" xmlns="http://www.w3.org/2000/svg">
<g id="Group">
<path id="Vector" d="M9.5919 0V9.5919H0V20.7824H20.7824V0H9.5919ZM1.61154 11.1905H9.5919V19.1709H1.61154V11.1905ZM11.197 19.1709V11.1905H19.1773V19.1709H11.197ZM19.1838 9.5919H11.2034V1.59865H19.1838V9.58545V9.5919ZM0 24.5277V35.7182H9.5919V45.3101H20.7824V24.5277H0ZM1.61154 34.1196V26.1328H9.5919V34.1196H1.61154ZM11.197 43.6986V35.7182H19.1773V43.6986H11.197ZM19.1838 34.1196H11.2034V26.1328H19.1838V34.1196ZM35.7053 9.5919V0H24.5148V20.7824H45.2972V9.5919H35.7053ZM34.1002 1.59865V9.58545H26.1134V1.59865H34.1002ZM26.1134 11.1905H34.1002V19.1709H26.1134V11.1905ZM43.6921 19.1709H35.7053V11.1905H43.6921V19.1709ZM24.5083 24.5277V45.3101H35.6989V35.7182H45.2908V24.5277H24.5083ZM43.6921 34.1196H35.7053V26.1328H43.6921V34.1196ZM26.1134 43.6986V35.7182H34.1002V43.6986H26.1134ZM34.1002 34.1196H26.1134V26.1328H34.1002V34.1196Z" fill="var(--fill-0, #002A68)"/>
<path id="Vector_2" d="M19.1838 1.59866V9.58546H11.2034V1.59866H19.1838ZM11.197 11.1906V19.1709H19.1773V11.1906H11.197ZM1.61154 11.1906V19.1709H9.5919V11.1906H1.61154ZM1.61154 26.1263V34.1131H9.5919V26.1263H1.61154ZM11.197 26.1263V34.1131H19.1773V26.1263H11.197ZM11.197 35.7182V43.6986H19.1773V35.7182H11.197ZM35.7053 11.1906V19.1709H43.6921V11.1906H35.7053ZM26.1134 11.1906V19.1709H34.1002V11.1906H26.1134ZM26.1134 1.59866V9.58546H34.1002V1.59866H26.1134ZM26.1134 35.7182V43.6986H34.1002V35.7182H26.1134ZM26.1134 26.1263V34.1131H34.1002V26.1263H26.1134ZM35.7053 26.1263V34.1131H43.6921V26.1263H35.7053Z" fill="var(--fill-0, #FFB600)"/>
</g>
</svg>
